<?xml version="1.0" encoding="UTF-8" standalone="no"?>
<!-- Created with Inkscape (http://www.inkscape.org/) by Toomai Glittershine for SmashWiki -->
<svg id="svg2" xmlns:rdf="http://www.w3.org/1999/02/22-rdf-syntax-ns#" xmlns="http://www.w3.org/2000/svg" version="1.1" xmlns:cc="http://creativecommons.org/ns#" xmlns:dc="http://purl.org/dc/elements/1.1/"
		height="256" width="256"
		viewBox="0 0 256 256">
	<metadata id="metadata7">
		<rdf:RDF>
			<cc:Work rdf:about="">
				<dc:format>image/svg+xml</dc:format>
				<dc:type rdf:resource="http://purl.org/dc/dcmitype/StillImage"/>
				<dc:title/>
			</cc:Work>
		</rdf:RDF>
	</metadata>
	<path id="mainsymbolpath" style="opacity:0.5;fill:#000000;fill-opacity:1;stroke:none"
		d="m 68.937215,202.60903 c 13.096642,13.09669 30.859497,20.45429 49.380955,20.45429 l 0,-69.83523 z M 79.148584,71.22851 c 13.096638,-13.09664 30.859496,-20.45426 49.380946,-20.45426 l 0,69.83521 z M 202.60902,187.06276 c 13.09665,-13.09664 20.45426,-30.8595 20.45426,-49.38095 l -69.83521,0 z M 71.228509,176.85139 C 58.131863,163.75474 50.774245,145.99189 50.774245,127.47043 l 69.835205,0 z M 187.06277,53.39095 c -13.09664,-13.09664 -30.85949,-20.45426 -49.38095,-20.45426 l 0,69.83521 z M 176.8514,184.77146 c -13.09664,13.09666 -30.85949,20.45426 -49.38095,20.45426 l 0,-69.8352 z M 53.390977,68.9372 c -13.096646,13.09664 -20.454264,30.8595 -20.454264,49.38095 l 69.835207,0 z m 131.380473,10.21136 c 13.09665,13.09665 20.45427,30.85951 20.45427,49.38096 l -69.83521,0 z"
	/>
</svg>